<svg height="395pt" viewBox="-99 0 395 395.94667" width="395pt" xmlns="http://www.w3.org/2000/svg"><path d="m27.78125 34.132812h163.839844v354.988282h-163.839844zm0 0" fill="#0e65e5"/><path d="m191.621094 395.945312h-163.839844c-3.773438 0-6.828125-3.050781-6.828125-6.824218v-354.988282c0-3.773437 3.054687-6.824218 6.828125-6.824218h163.839844c3.773437 0 6.824218 3.050781 6.824218 6.824218v354.988282c0 3.773437-3.050781 6.824218-6.824218 6.824218zm-157.015625-13.652343h150.1875v-341.332031h-150.1875zm0 0" fill="#0e65e5"/><path d="m7.300781 34.132812h163.839844v354.988282h-163.839844zm0 0" fill="#d7e9ff"/><g fill="#0e65e5"><path d="m171.140625 395.945312h-163.839844c-3.773437 0-6.828125-3.050781-6.828125-6.824218v-354.988282c0-3.773437 3.054688-6.824218 6.828125-6.824218h163.839844c3.773437 0 6.824219 3.050781 6.824219 6.824218v354.988282c0 3.773437-3.050782 6.824218-6.824219 6.824218zm-157.015625-13.652343h150.1875v-341.332031h-150.1875zm0 0"/><path d="m68.738281 6.828125h75.09375v27.304687h-75.09375zm0 0"/><path d="m143.832031 40.960938h-75.09375c-3.773437 0-6.824219-3.054688-6.824219-6.828126v-27.304687c0-3.773437 3.050782-6.828125 6.824219-6.828125h75.09375c3.773438 0 6.828125 3.054688 6.828125 6.828125v27.304687c0 3.773438-3.054687 6.828126-6.828125 6.828126zm-68.265625-13.652344h61.441406v-13.65625h-61.441406zm0 0"/></g><path d="m137.007812 218.453125c0-26.390625-47.789062-116.054687-47.789062-116.054687s-47.785156 89.664062-47.785156 116.054687 21.394531 47.785156 47.785156 47.785156c26.394531 0 47.789062-21.394531 47.789062-47.785156zm0 0" fill="#2a8ee6"/><path d="m89.21875 273.066406c-30.113281 0-54.613281-24.5-54.613281-54.613281 0-27.3125 43.613281-109.933594 48.589843-119.265625 2.371094-4.441406 9.679688-4.441406 12.050782 0 4.972656 9.332031 48.585937 91.953125 48.585937 119.265625 0 30.113281-24.496093 54.613281-54.613281 54.613281zm0-155.898437c-15.277344 29.832031-40.957031 83.664062-40.957031 101.285156 0 22.585937 18.371093 40.960937 40.957031 40.960937s40.960938-18.375 40.960938-40.960937c0-17.621094-25.679688-71.453125-40.960938-101.285156zm0 0" fill="#0e65e5"/><path d="m89.21875 314.027344c-3.773438 0-6.824219-3.054688-6.824219-6.828125v-95.574219c0-3.773438 3.050781-6.824219 6.824219-6.824219s6.828125 3.050781 6.828125 6.824219v95.574219c0 3.773437-3.054687 6.828125-6.828125 6.828125zm0 0" fill="#0e65e5"/><path d="m55.085938 6.828125h75.09375v27.304687h-75.09375zm0 0" fill="#94c1ff"/><path d="m130.179688 40.960938h-75.09375c-3.773438 0-6.824219-3.054688-6.824219-6.828126v-27.304687c0-3.773437 3.050781-6.828125 6.824219-6.828125h75.09375c3.773437 0 6.828124 3.054688 6.828124 6.828125v27.304687c0 3.773438-3.054687 6.828126-6.828124 6.828126zm-68.265626-13.652344h61.4375v-13.65625h-61.4375zm0 0" fill="#0e65e5"/><path d="m164.3125 361.8125c-3.773438 0-6.824219-3.050781-6.824219-6.824219v-27.308593c0-3.773438 3.050781-6.828126 6.824219-6.828126s6.828125 3.054688 6.828125 6.828126v27.308593c0 3.773438-3.054687 6.824219-6.828125 6.824219zm0 0" fill="#fff"/><path d="m177.964844 348.160156h-27.304688c-3.773437 0-6.828125-3.054687-6.828125-6.828125 0-3.773437 3.054688-6.824219 6.828125-6.824219h27.304688c3.773437 0 6.828125 3.050782 6.828125 6.824219 0 3.773438-3.054688 6.828125-6.828125 6.828125zm0 0" fill="#fff"/><path d="m27.78125 81.921875c-3.773438 0-6.828125-3.054687-6.828125-6.828125v-20.480469c0-3.773437 3.054687-6.828125 6.828125-6.828125h40.957031c3.773438 0 6.828125 3.054688 6.828125 6.828125 0 3.773438-3.054687 6.828125-6.828125 6.828125h-34.132812v13.652344c0 3.773438-3.050781 6.828125-6.824219 6.828125zm0 0" fill="#fff"/></svg>