<?xml version="1.0" encoding="iso-8859-1"?>
<!-- Generator: Adobe Illustrator 19.0.0, SVG Export Plug-In . SVG Version: 6.00 Build 0)  -->
<svg version="1.1" id="Layer_1" xmlns="http://www.w3.org/2000/svg" xmlns:xlink="http://www.w3.org/1999/xlink" x="0px" y="0px"
	 viewBox="0 0 512 512" style="enable-background:new 0 0 512 512;" xml:space="preserve">
<circle style="fill:#88C5CC;" cx="256" cy="256" r="256"/>
<path style="fill:#E6E6E6;" d="M408,324c0,8.8-7.2,16-16,16H80c-8.8,0-16-7.2-16-16V188c0-8.8,7.2-16,16-16h312c8.8,0,16,7.2,16,16
	V324z"/>
<path style="fill:#CCCCCC;" d="M408,216h32c4.4,0,8,3.6,8,8v64c0,4.4-3.6,8-8,8h-32V216z"/>
<g>
	<rect x="84" y="196" style="fill:#B3B3B3;" width="48" height="120"/>
	<rect x="148" y="196" style="fill:#B3B3B3;" width="48" height="120"/>
	<rect x="212" y="196" style="fill:#B3B3B3;" width="48" height="120"/>
	<rect x="276" y="196" style="fill:#B3B3B3;" width="48" height="120"/>
	<rect x="340" y="196" style="fill:#B3B3B3;" width="48" height="120"/>
	<rect x="408" y="216" style="fill:#B3B3B3;" width="8" height="80"/>
</g>
<g>
</g>
<g>
</g>
<g>
</g>
<g>
</g>
<g>
</g>
<g>
</g>
<g>
</g>
<g>
</g>
<g>
</g>
<g>
</g>
<g>
</g>
<g>
</g>
<g>
</g>
<g>
</g>
<g>
</g>
</svg>
